<svg xmlns="http://www.w3.org/2000/svg" width="598.086" height="206.082" viewBox="0 0 598.086 206.082">
  <g>
    <g>
      <circle cx="556.521" cy="196.185" r="8.729" style="fill: none;stroke: #d3af5f;stroke-miterlimit: 10;stroke-width: 2.3359375px"/>
      <g>
        <g>
          <path d="M525.439,531.956h6.432a14.513,14.513,0,0,1,6.888,1.536,10.354,10.354,0,0,1,4.42,4.475,15.062,15.062,0,0,1,1.518,7q0,6.09-3.389,9.519t-9.437,3.421h-6.432Zm6.357,23.365a9.994,9.994,0,0,0,7.269-2.547c1.754-1.7,2.622-4.3,2.622-7.808,0-3.524-.868-6.141-2.622-7.841a10.019,10.019,0,0,0-7.269-2.546h-3.5v20.742Z" transform="translate(-160.957 -353.737)" style="fill: #d3af5f"/>
          <path d="M531.871,558.04H525.3V531.823h6.566a14.709,14.709,0,0,1,6.951,1.551,10.56,10.56,0,0,1,4.477,4.53,15.268,15.268,0,0,1,1.532,7.063c0,4.082-1.154,7.316-3.428,9.612S535.927,558.04,531.871,558.04Zm-6.3-.269h6.3c3.982,0,7.124-1.138,9.34-3.381s3.351-5.415,3.351-9.423a15.007,15.007,0,0,0-1.5-6.937,10.286,10.286,0,0,0-4.364-4.419,14.45,14.45,0,0,0-6.825-1.519h-6.3Zm6.223-2.315h-3.635V534.444H531.8a10.194,10.194,0,0,1,7.362,2.583c1.769,1.714,2.664,4.387,2.664,7.94,0,3.526-.895,6.186-2.664,7.906A10.179,10.179,0,0,1,531.8,555.456Zm-3.367-.268H531.8a9.925,9.925,0,0,0,7.175-2.51c1.713-1.667,2.582-4.261,2.582-7.711,0-3.479-.869-6.083-2.582-7.745a9.941,9.941,0,0,0-7.175-2.51h-3.367Z" transform="translate(-160.957 -353.737)" style="fill: #d3af5f"/>
        </g>
        <g>
          <path d="M597.751,540.666a8.342,8.342,0,0,1,3.043,3.219,9.34,9.34,0,0,1,1.105,4.546c0,.486-.019.858-.041,1.1H587.205A7.706,7.706,0,0,0,589,554.212a5.493,5.493,0,0,0,4.455,1.939,7.562,7.562,0,0,0,3.785-.846,6.648,6.648,0,0,0,2.413-2.383l2.057,1.366a8.8,8.8,0,0,1-3.314,3.1,10,10,0,0,1-4.867,1.125,8.7,8.7,0,0,1-4.6-1.218,8.429,8.429,0,0,1-3.162-3.388,11.173,11.173,0,0,1-.018-9.813,8.373,8.373,0,0,1,3.123-3.393,8.568,8.568,0,0,1,4.546-1.219A8.25,8.25,0,0,1,597.751,540.666Zm1.56,6.737a6.771,6.771,0,0,0-1.865-4.163,5.639,5.639,0,0,0-4.035-1.394,5.481,5.481,0,0,0-4.057,1.585,7.217,7.217,0,0,0-2,3.972Z" transform="translate(-160.957 -353.737)" style="fill: #d3af5f"/>
          <path d="M593.526,558.651a8.9,8.9,0,0,1-4.674-1.235,8.61,8.61,0,0,1-3.212-3.442,11.317,11.317,0,0,1-.017-9.939,8.574,8.574,0,0,1,3.172-3.447,8.765,8.765,0,0,1,4.616-1.236,8.409,8.409,0,0,1,4.41,1.2h0a8.52,8.52,0,0,1,3.092,3.27,9.526,9.526,0,0,1,1.12,4.609c0,.427-.014.824-.041,1.117l-.011.121H587.349a7.576,7.576,0,0,0,1.751,4.456,5.327,5.327,0,0,0,4.352,1.893,7.378,7.378,0,0,0,3.719-.829,6.564,6.564,0,0,0,2.363-2.334l.072-.121.119.077,2.166,1.437-.07.111a8.958,8.958,0,0,1-3.364,3.153A10.192,10.192,0,0,1,593.526,558.651Zm-.115-19.03a8.485,8.485,0,0,0-4.477,1.2,8.311,8.311,0,0,0-3.072,3.34A10.388,10.388,0,0,0,584.751,549a10.28,10.28,0,0,0,1.128,4.843,8.313,8.313,0,0,0,3.113,3.337,8.617,8.617,0,0,0,4.534,1.2,9.9,9.9,0,0,0,4.8-1.109,8.7,8.7,0,0,0,3.194-2.946l-1.83-1.215a6.782,6.782,0,0,1-2.387,2.307,7.6,7.6,0,0,1-3.853.867,5.656,5.656,0,0,1-4.559-1.988,7.876,7.876,0,0,1-1.822-4.757l-.008-.142h14.671c.02-.268.031-.608.031-.969a9.289,9.289,0,0,0-1.089-4.482,8.232,8.232,0,0,0-2.994-3.165A8.134,8.134,0,0,0,593.411,539.621Zm6.055,7.916H587.2l.027-.158a7.366,7.366,0,0,1,2.034-4.042,5.627,5.627,0,0,1,4.152-1.625,5.786,5.786,0,0,1,4.127,1.43,6.93,6.93,0,0,1,1.9,4.243Zm-11.946-.268h11.635a6.587,6.587,0,0,0-1.8-3.932,5.537,5.537,0,0,0-3.943-1.356,5.381,5.381,0,0,0-3.961,1.545A7.068,7.068,0,0,0,587.52,547.269Z" transform="translate(-160.957 -353.737)" style="fill: #d3af5f"/>
        </g>
        <g>
          <path d="M663.714,540.513a5.946,5.946,0,0,1,2.513,2.245,6.4,6.4,0,0,1,.933,3.5v11.912h-2.586V547.4q0-5.295-4.722-5.3a4.707,4.707,0,0,0-4.109,1.94,8.862,8.862,0,0,0-1.372,5.218v8.9h-2.587l-.191-16.545,1.733,1.692,1.045.018a6.768,6.768,0,0,1,2.42-2.65,6.441,6.441,0,0,1,3.482-.934A7.79,7.79,0,0,1,663.714,540.513Z" transform="translate(-160.957 -353.737)" style="fill: #d3af5f"/>
          <path d="M667.294,558.3h-2.853V547.4c0-3.471-1.5-5.159-4.589-5.159a4.591,4.591,0,0,0-4,1.886,8.767,8.767,0,0,0-1.348,5.138V558.3H651.65l-.13-17.2,1.792,2.035h1.319a7.61,7.61,0,0,1,2.088-2.578,6.631,6.631,0,0,1,3.554-.951,7.973,7.973,0,0,1,3.5.777h0a6.107,6.107,0,0,1,2.569,2.3,6.55,6.55,0,0,1,.952,3.569Zm-2.585-.269h2.316V546.256a6.282,6.282,0,0,0-.911-3.426,5.855,5.855,0,0,0-2.458-2.2h0a7.7,7.7,0,0,0-3.382-.75,6.368,6.368,0,0,0-3.412.911,6.7,6.7,0,0,0-2.371,2.6l-.253.474-1.284-.541-.788-1.635-.247,16.339h2.319v-8.767a9.041,9.041,0,0,1,1.4-5.3,4.849,4.849,0,0,1,4.219-2c3.223,0,4.857,1.825,4.857,5.427Z" transform="translate(-160.957 -353.737)" style="fill: #d3af5f"/>
        </g>
        <g>
          <path d="M651.059,540.647a5.957,5.957,0,0,1,2.514,2.246,6.393,6.393,0,0,1,.933,3.5V558.3H651.92V547.537q0-5.3-4.723-5.3a4.712,4.712,0,0,0-4.109,1.94,8.871,8.871,0,0,0-1.371,5.219v8.9H639.13V540.494h2.587v2.972a6.765,6.765,0,0,1,2.419-2.65,6.441,6.441,0,0,1,3.482-.934A7.8,7.8,0,0,1,651.059,540.647Z" transform="translate(-160.957 -353.737)" style="fill: #d3af5f"/>
          <path d="M654.639,558.436h-2.853v-10.9c0-3.471-1.5-5.159-4.589-5.159a4.592,4.592,0,0,0-4,1.885,8.769,8.769,0,0,0-1.348,5.138v9.036H639V540.359h2.856v2.6a6.8,6.8,0,0,1,2.214-2.262,6.637,6.637,0,0,1,3.554-.951,7.971,7.971,0,0,1,3.5.777h0a6.091,6.091,0,0,1,2.569,2.3,6.544,6.544,0,0,1,.952,3.568Zm-2.584-.269h2.316V546.39a6.29,6.29,0,0,0-.911-3.426,5.861,5.861,0,0,0-2.459-2.2h0a7.7,7.7,0,0,0-3.381-.751,6.368,6.368,0,0,0-3.412.911,6.7,6.7,0,0,0-2.372,2.6l-.252.474v-3.376h-2.319v17.539h2.319V549.4a9.048,9.048,0,0,1,1.395-5.3,4.852,4.852,0,0,1,4.219-2c3.223,0,4.858,1.825,4.858,5.428Z" transform="translate(-160.957 -353.737)" style="fill: #d3af5f"/>
        </g>
      </g>
    </g>
    <g>
      <path d="M224.019,362.745H208.252v54.322h47.3V427.2h-47.3v75.186h24.775V511.4h-72.07v-9.008H174.47V362.745H160.957v-9.008h96.621a56.654,56.654,0,0,1,7.32.339,7.509,7.509,0,0,1,4.391,2.475q2.029,2.142,2.03,6.644l-6.082,37.838h-8.785l-4.506-22.3q-2.023-10.131-7.543-13.06T224.019,362.745Z" transform="translate(-160.957 -353.737)" style="fill: #444c4c"/>
      <path d="M327.471,431.489v62.755a10.329,10.329,0,0,0,2.1,6.857q2.092,2.5,6.452,2.5t10-4.679l2.906,3.872q-12.91,11.779-25.814,11.778-15.327,0-18.874-14.358-8.388,14.359-24.682,14.358-18.554,0-28.231-12.02t-9.68-30.652q0-18.628,10.407-30.732t29.118-12.1q14.355,0,22.1,11.453v-9.035Zm-56.3,15.812q-4.522,9.035-4.519,24.519t4.519,24.522q4.514,9.036,13.794,9.035t14.2-9.115q4.917-9.114,4.921-24.442t-4.921-24.439q-4.925-9.115-14.2-9.115T271.171,447.3Z" transform="translate(-160.957 -353.737)" style="fill: #444c4c"/>
      <path d="M361.827,444.718q-3.872-5.969-3.872-10.646a11.428,11.428,0,0,1,3.629-8.308,12.465,12.465,0,0,1,17.586,0,11.781,11.781,0,0,1,3.629,8.63q0,5-5,10.646,13.226,9.682,20.326,18.957a34.331,34.331,0,0,1,7.1,21.454,27.018,27.018,0,0,1-9.195,20.651q-9.195,8.472-26.136,8.47a38.943,38.943,0,0,1-15.567-3.387q-7.824-3.392-11.857-8.391l3.709-3.872A24.136,24.136,0,0,0,361.5,504.57q8.229,0,13.472-4.436t5.243-13.793q0-14.842-10.971-30.975l-24.36,30.49-4.034-3.55Q353.112,462.463,361.827,444.718Z" transform="translate(-160.957 -353.737)" style="fill: #444c4c"/>
      <path d="M438.547,398.579v41.46a31.632,31.632,0,0,1,12.18-8.55q6.534-2.416,16.616-2.418t16.456,6.372q6.37,6.375,6.372,17.34v41.461a10.344,10.344,0,0,0,2.1,6.857q2.1,2.5,6.455,2.5t10-4.679l2.9,3.872q-12.906,11.779-25.811,11.778-19.844,0-19.844-23.715V449.4a9.857,9.857,0,0,0-3.065-7.743q-3.063-2.74-8.55-2.743t-10.646,4.519a14.9,14.9,0,0,0-5.163,11.775v56.947h-24.2V396.483q-8.876,2.262-13.552,7.9l-4.356-5a33.887,33.887,0,0,1,11.858-7.744,37.64,37.64,0,0,1,14.195-2.9q7.018,0,11.536,2.822T438.547,398.579Z" transform="translate(-160.957 -353.737)" style="fill: #444c4c"/>
      <path d="M526.51,429.071q15.162,0,15.165,13.066v52.107a10.344,10.344,0,0,0,2.1,6.857q2.1,2.5,6.455,2.5t10-4.679l2.9,3.872q-12.906,11.779-25.811,11.778-19.843,0-19.843-23.715V436.815q-8.871,2.261-13.551,7.9l-4.354-5a33.86,33.86,0,0,1,11.855-7.744A39.845,39.845,0,0,1,526.51,429.071Zm-6.05-15.892a12.851,12.851,0,1,1,9.115,3.792A12.424,12.424,0,0,1,520.46,413.179Z" transform="translate(-160.957 -353.737)" style="fill: #444c4c"/>
      <path d="M572.956,502.23Q561.1,489.886,561.1,471.82t11.858-30.41q11.855-12.342,30.891-12.339t30.895,12.339Q646.6,453.754,646.6,471.82t-11.857,30.41q-11.856,12.342-30.895,12.342T572.956,502.23Zm17.665-56.3Q586.1,456.011,586.1,471.82t4.519,25.894q4.514,10.08,13.389,10.081T617.4,497.714q4.518-10.082,4.52-25.894t-4.52-25.891q-4.517-10.081-13.388-10.084T590.621,445.929Z" transform="translate(-160.957 -353.737)" style="fill: #444c4c"/>
      <path d="M661.764,431.489a38.559,38.559,0,0,1,23.878,8.068,36.658,36.658,0,0,1,12.582-8.148q6.45-2.337,16.536-2.338t16.454,6.372q6.375,6.375,6.372,17.34v41.461a10.344,10.344,0,0,0,2.1,6.857q2.1,2.5,6.452,2.5t10-4.679l2.9,3.872q-12.91,11.779-25.811,11.778-19.843,0-19.843-23.715V449.4a9.86,9.86,0,0,0-3.065-7.743q-3.067-2.74-8.471-2.743t-10.646,4.356a14,14,0,0,0-5.243,11.294v57.591h-24.2V437.943a32.526,32.526,0,0,0-12.9,2.418l-2.261-5.967A38.888,38.888,0,0,1,661.764,431.489Z" transform="translate(-160.957 -353.737)" style="fill: #444c4c"/>
    </g>
    <rect x="5.961" y="184.295" width="329.402" height="15.021" style="fill: #444c4c"/>
  </g>
</svg>
